<?xml version="1.0" encoding="UTF-8" standalone="no"?>
<!DOCTYPE svg PUBLIC "-//W3C//DTD SVG 1.1//EN"
 "http://www.w3.org/Graphics/SVG/1.1/DTD/svg11.dtd">
<!-- Generated by graphviz version 10.0.1 (0)
 -->
<!-- Pages: 1 -->
<svg width="412pt" height="404pt"
 viewBox="0.00 0.00 411.58 404.00" xmlns="http://www.w3.org/2000/svg" xmlns:xlink="http://www.w3.org/1999/xlink">
<g id="graph0" class="graph" transform="scale(1 1) rotate(0) translate(4 400)">
<polygon fill="white" stroke="none" points="-4,4 -4,-400 407.58,-400 407.58,4 -4,4"/>
<!-- 0 -->
<g id="node1" class="node">
<title>0</title>
<polygon fill="none" stroke="black" points="310.88,-108 189.88,-108 189.88,-72 310.88,-72 310.88,-108"/>
<text text-anchor="middle" x="250.38" y="-85.33" font-family="Times,serif" font-size="14.00">pa&#45;affine&#45;types</text>
</g>
<!-- 11 -->
<g id="node12" class="node">
<title>11</title>
<ellipse fill="none" stroke="black" cx="185.38" cy="-18" rx="53.84" ry="18"/>
<text text-anchor="middle" x="185.38" y="-13.32" font-family="Times,serif" font-size="14.00">pa&#45;types</text>
</g>
<!-- 0&#45;&gt;11 -->
<g id="edge1" class="edge">
<title>0&#45;&gt;11</title>
<path fill="none" stroke="black" d="M234.31,-71.7C226.56,-63.35 217.12,-53.18 208.6,-44.02"/>
<polygon fill="black" stroke="black" points="211.21,-41.68 201.84,-36.73 206.08,-46.44 211.21,-41.68"/>
</g>
<!-- 1 -->
<g id="node2" class="node">
<title>1</title>
<polygon fill="none" stroke="black" points="171.75,-108 71,-108 71,-72 171.75,-72 171.75,-108"/>
<text text-anchor="middle" x="121.38" y="-85.33" font-family="Times,serif" font-size="14.00">pa&#45;heuristic</text>
</g>
<!-- 1&#45;&gt;11 -->
<g id="edge2" class="edge">
<title>1&#45;&gt;11</title>
<path fill="none" stroke="black" d="M137.2,-71.7C144.83,-63.35 154.12,-53.18 162.5,-44.02"/>
<polygon fill="black" stroke="black" points="164.99,-46.48 169.16,-36.74 159.83,-41.76 164.99,-46.48"/>
</g>
<!-- 2 -->
<g id="node3" class="node">
<title>2</title>
<polygon fill="none" stroke="black" points="241.12,-180 139.62,-180 139.62,-144 241.12,-144 241.12,-180"/>
<text text-anchor="middle" x="190.38" y="-157.32" font-family="Times,serif" font-size="14.00">pa&#45;vis&#45;types</text>
</g>
<!-- 2&#45;&gt;0 -->
<g id="edge3" class="edge">
<title>2&#45;&gt;0</title>
<path fill="none" stroke="black" d="M205.21,-143.7C212.18,-135.56 220.64,-125.69 228.35,-116.7"/>
<polygon fill="black" stroke="black" points="230.88,-119.12 234.73,-109.25 225.56,-114.57 230.88,-119.12"/>
</g>
<!-- 2&#45;&gt;1 -->
<g id="edge4" class="edge">
<title>2&#45;&gt;1</title>
<path fill="none" stroke="black" d="M173.32,-143.7C165.13,-135.39 155.16,-125.28 146.16,-116.14"/>
<polygon fill="black" stroke="black" points="148.81,-113.85 139.3,-109.18 143.82,-118.76 148.81,-113.85"/>
</g>
<!-- 3 -->
<g id="node4" class="node">
<title>3</title>
<polygon fill="none" stroke="black" points="298.38,-252 228.38,-252 228.38,-216 298.38,-216 298.38,-252"/>
<text text-anchor="middle" x="263.38" y="-229.32" font-family="Times,serif" font-size="14.00">astarpa</text>
</g>
<!-- 3&#45;&gt;2 -->
<g id="edge5" class="edge">
<title>3&#45;&gt;2</title>
<path fill="none" stroke="black" d="M245.33,-215.7C236.64,-207.37 226.06,-197.22 216.52,-188.07"/>
<polygon fill="black" stroke="black" points="219.2,-185.79 209.56,-181.39 214.35,-190.84 219.2,-185.79"/>
</g>
<!-- 4 -->
<g id="node5" class="node">
<title>4</title>
<polygon fill="none" stroke="black" points="213.38,-324 131.38,-324 131.38,-288 213.38,-288 213.38,-324"/>
<text text-anchor="middle" x="172.38" y="-301.32" font-family="Times,serif" font-size="14.00">astarpa&#45;c</text>
</g>
<!-- 4&#45;&gt;3 -->
<g id="edge6" class="edge">
<title>4&#45;&gt;3</title>
<path fill="none" stroke="black" d="M194.87,-287.7C206.03,-279.11 219.69,-268.61 231.87,-259.24"/>
<polygon fill="black" stroke="black" points="233.83,-262.14 239.62,-253.27 229.56,-256.59 233.83,-262.14"/>
</g>
<!-- 5 -->
<g id="node6" class="node">
<title>5</title>
<polygon fill="none" stroke="black" points="209.88,-252 130.88,-252 130.88,-216 209.88,-216 209.88,-252"/>
<text text-anchor="middle" x="170.38" y="-229.32" font-family="Times,serif" font-size="14.00">astarpa2</text>
</g>
<!-- 4&#45;&gt;5 -->
<g id="edge7" class="edge">
<title>4&#45;&gt;5</title>
<path fill="none" stroke="black" d="M171.88,-287.7C171.67,-280.41 171.42,-271.73 171.19,-263.54"/>
<polygon fill="black" stroke="black" points="174.69,-263.51 170.91,-253.62 167.69,-263.71 174.69,-263.51"/>
</g>
<!-- 5&#45;&gt;2 -->
<g id="edge9" class="edge">
<title>5&#45;&gt;2</title>
<path fill="none" stroke="black" d="M175.32,-215.7C177.45,-208.24 180,-199.32 182.38,-190.97"/>
<polygon fill="black" stroke="black" points="185.69,-192.14 185.07,-181.56 178.96,-190.21 185.69,-192.14"/>
</g>
<!-- 6 -->
<g id="node7" class="node">
<title>6</title>
<polygon fill="none" stroke="black" points="112.75,-180 0,-180 0,-144 112.75,-144 112.75,-180"/>
<text text-anchor="middle" x="56.38" y="-157.32" font-family="Times,serif" font-size="14.00">pa&#45;bitpacking</text>
</g>
<!-- 5&#45;&gt;6 -->
<g id="edge8" class="edge">
<title>5&#45;&gt;6</title>
<path fill="none" stroke="black" d="M141.9,-215.52C127.37,-206.6 109.52,-195.63 93.88,-186.03"/>
<polygon fill="black" stroke="black" points="96.13,-183.3 85.77,-181.05 92.47,-189.27 96.13,-183.3"/>
</g>
<!-- 6&#45;&gt;11 -->
<g id="edge10" class="edge">
<title>6&#45;&gt;11</title>
<path fill="none" stroke="black" d="M52.57,-143.52C49.41,-124.18 47.53,-92.99 62.38,-72 77.51,-50.6 103.17,-37.77 127.15,-30.11"/>
<polygon fill="black" stroke="black" points="127.93,-33.53 136.55,-27.37 125.97,-26.81 127.93,-33.53"/>
</g>
<!-- 7 -->
<g id="node8" class="node">
<title>7</title>
<polygon fill="none" stroke="black" points="381.38,-324 323.38,-324 323.38,-288 381.38,-288 381.38,-324"/>
<text text-anchor="middle" x="352.38" y="-301.32" font-family="Times,serif" font-size="14.00">pa&#45;vis</text>
</g>
<!-- 7&#45;&gt;2 -->
<g id="edge11" class="edge">
<title>7&#45;&gt;2</title>
<path fill="none" stroke="black" d="M347.52,-287.81C341.19,-268.16 328.38,-236.12 307.38,-216 291.89,-201.16 271.52,-189.99 252.13,-181.83"/>
<polygon fill="black" stroke="black" points="253.48,-178.6 242.9,-178.16 250.9,-185.1 253.48,-178.6"/>
</g>
<!-- 8 -->
<g id="node9" class="node">
<title>8</title>
<polygon fill="none" stroke="black" points="293.5,-324 233.25,-324 233.25,-288 293.5,-288 293.5,-324"/>
<text text-anchor="middle" x="263.38" y="-301.32" font-family="Times,serif" font-size="14.00">pa&#45;bin</text>
</g>
<!-- 8&#45;&gt;3 -->
<g id="edge12" class="edge">
<title>8&#45;&gt;3</title>
<path fill="none" stroke="black" d="M263.38,-287.7C263.38,-280.41 263.38,-271.73 263.38,-263.54"/>
<polygon fill="black" stroke="black" points="266.88,-263.62 263.38,-253.62 259.88,-263.62 266.88,-263.62"/>
</g>
<!-- 8&#45;&gt;5 -->
<g id="edge13" class="edge">
<title>8&#45;&gt;5</title>
<path fill="none" stroke="black" d="M240.39,-287.7C228.98,-279.11 215.02,-268.61 202.58,-259.24"/>
<polygon fill="black" stroke="black" points="204.73,-256.47 194.63,-253.26 200.52,-262.07 204.73,-256.47"/>
</g>
<!-- 12 -->
<g id="node13" class="node">
<title>12</title>
<ellipse fill="none" stroke="black" cx="332.38" cy="-162" rx="71.2" ry="18"/>
<text text-anchor="middle" x="332.38" y="-157.32" font-family="Times,serif" font-size="14.00">pa&#45;generate</text>
</g>
<!-- 8&#45;&gt;12 -->
<g id="edge14" class="edge">
<title>8&#45;&gt;12</title>
<path fill="none" stroke="black" d="M280.91,-287.73C289.94,-277.98 300.48,-265.13 307.38,-252 317.36,-232.97 323.74,-209.5 327.55,-191.44"/>
<polygon fill="black" stroke="black" points="330.98,-192.16 329.46,-181.68 324.11,-190.82 330.98,-192.16"/>
</g>
<!-- 9 -->
<g id="node10" class="node">
<title>9</title>
<polygon fill="none" stroke="black" points="112.75,-252 0,-252 0,-216 112.75,-216 112.75,-252"/>
<text text-anchor="middle" x="56.38" y="-229.32" font-family="Times,serif" font-size="14.00">pa&#45;base&#45;algos</text>
</g>
<!-- 9&#45;&gt;2 -->
<g id="edge16" class="edge">
<title>9&#45;&gt;2</title>
<path fill="none" stroke="black" d="M89.84,-215.52C107.24,-206.43 128.7,-195.22 147.32,-185.49"/>
<polygon fill="black" stroke="black" points="148.75,-188.69 155.99,-180.96 145.51,-182.49 148.75,-188.69"/>
</g>
<!-- 9&#45;&gt;6 -->
<g id="edge15" class="edge">
<title>9&#45;&gt;6</title>
<path fill="none" stroke="black" d="M56.38,-215.7C56.38,-208.41 56.38,-199.73 56.38,-191.54"/>
<polygon fill="black" stroke="black" points="59.88,-191.62 56.38,-181.62 52.88,-191.62 59.88,-191.62"/>
</g>
<!-- 10 -->
<g id="node11" class="node">
<title>10</title>
<polygon fill="none" stroke="black" points="316.38,-396 210.38,-396 210.38,-360 316.38,-360 316.38,-396"/>
<text text-anchor="middle" x="263.38" y="-373.32" font-family="Times,serif" font-size="14.00">astarpa&#45;next</text>
</g>
<!-- 10&#45;&gt;7 -->
<g id="edge19" class="edge">
<title>10&#45;&gt;7</title>
<path fill="none" stroke="black" stroke-dasharray="1,5" d="M285.38,-359.7C296.29,-351.11 309.65,-340.61 321.56,-331.24"/>
<polygon fill="black" stroke="black" points="323.43,-334.22 329.13,-325.28 319.11,-328.71 323.43,-334.22"/>
</g>
<!-- 10&#45;&gt;8 -->
<g id="edge18" class="edge">
<title>10&#45;&gt;8</title>
<path fill="none" stroke="black" d="M263.38,-359.7C263.38,-352.41 263.38,-343.73 263.38,-335.54"/>
<polygon fill="black" stroke="black" points="266.88,-335.62 263.38,-325.62 259.88,-335.62 266.88,-335.62"/>
</g>
<!-- 10&#45;&gt;9 -->
<g id="edge17" class="edge">
<title>10&#45;&gt;9</title>
<path fill="none" stroke="black" d="M209.88,-364.73C181.88,-356.46 148.16,-343.45 122.38,-324 100.5,-307.51 82.54,-281.82 70.91,-262.28"/>
<polygon fill="black" stroke="black" points="74.02,-260.67 66.02,-253.74 67.95,-264.15 74.02,-260.67"/>
</g>
<!-- 12&#45;&gt;11 -->
<g id="edge20" class="edge">
<title>12&#45;&gt;11</title>
<path fill="none" stroke="black" d="M334.62,-143.62C336.16,-124.09 335.56,-92.45 319.38,-72 301.22,-49.07 271.71,-36.03 244.99,-28.63"/>
<polygon fill="black" stroke="black" points="246.17,-25.32 235.62,-26.25 244.45,-32.1 246.17,-25.32"/>
</g>
</g>
</svg>
