<?xml version="1.0" encoding="UTF-8" standalone="no"?>
<!DOCTYPE svg PUBLIC "-//W3C//DTD SVG 1.1//EN"
 "http://www.w3.org/Graphics/SVG/1.1/DTD/svg11.dtd">
<!-- Generated by graphviz version 7.1.0 (0)
 -->
<!-- Pages: 1 -->
<svg width="447pt" height="476pt"
 viewBox="0.00 0.00 446.79 476.00" xmlns="http://www.w3.org/2000/svg" xmlns:xlink="http://www.w3.org/1999/xlink">
<g id="graph0" class="graph" transform="scale(1 1) rotate(0) translate(4 472)">
<polygon fill="white" stroke="none" points="-4,4 -4,-472 442.79,-472 442.79,4 -4,4"/>
<!-- 0 -->
<g id="node1" class="node">
<title>0</title>
<polygon fill="none" stroke="black" points="344.5,-108 222.5,-108 222.5,-72 344.5,-72 344.5,-108"/>
<text text-anchor="middle" x="283.5" y="-86.3" font-family="Times,serif" font-size="14.00">pa&#45;affine&#45;types</text>
</g>
<!-- 10 -->
<g id="node11" class="node">
<title>10</title>
<ellipse fill="none" stroke="black" cx="283.5" cy="-18" rx="50.09" ry="18"/>
<text text-anchor="middle" x="283.5" y="-14.3" font-family="Times,serif" font-size="14.00">pa&#45;types</text>
</g>
<!-- 0&#45;&gt;10 -->
<g id="edge1" class="edge">
<title>0&#45;&gt;10</title>
<path fill="none" stroke="black" d="M283.5,-71.7C283.5,-64.41 283.5,-55.73 283.5,-47.54"/>
<polygon fill="black" stroke="black" points="287,-47.62 283.5,-37.62 280,-47.62 287,-47.62"/>
</g>
<!-- 1 -->
<g id="node2" class="node">
<title>1</title>
<polygon fill="none" stroke="black" points="204,-108 103,-108 103,-72 204,-72 204,-108"/>
<text text-anchor="middle" x="153.5" y="-86.3" font-family="Times,serif" font-size="14.00">pa&#45;heuristic</text>
</g>
<!-- 1&#45;&gt;10 -->
<g id="edge2" class="edge">
<title>1&#45;&gt;10</title>
<path fill="none" stroke="black" d="M185.97,-71.52C204.46,-61.56 227.67,-49.06 246.82,-38.75"/>
<polygon fill="black" stroke="black" points="248.22,-41.97 255.36,-34.15 244.9,-35.81 248.22,-41.97"/>
</g>
<!-- 2 -->
<g id="node3" class="node">
<title>2</title>
<polygon fill="none" stroke="black" points="246.5,-180 144.5,-180 144.5,-144 246.5,-144 246.5,-180"/>
<text text-anchor="middle" x="195.5" y="-158.3" font-family="Times,serif" font-size="14.00">pa&#45;vis&#45;types</text>
</g>
<!-- 2&#45;&gt;0 -->
<g id="edge3" class="edge">
<title>2&#45;&gt;0</title>
<path fill="none" stroke="black" d="M217.25,-143.7C227.94,-135.2 240.99,-124.81 252.68,-115.51"/>
<polygon fill="black" stroke="black" points="254.86,-118.25 260.51,-109.29 250.5,-112.78 254.86,-118.25"/>
</g>
<!-- 2&#45;&gt;1 -->
<g id="edge4" class="edge">
<title>2&#45;&gt;1</title>
<path fill="none" stroke="black" d="M185.12,-143.7C180.44,-135.9 174.81,-126.51 169.6,-117.83"/>
<polygon fill="black" stroke="black" points="172.69,-116.18 164.54,-109.4 166.69,-119.78 172.69,-116.18"/>
</g>
<!-- 3 -->
<g id="node4" class="node">
<title>3</title>
<polygon fill="none" stroke="black" points="113,-252 0,-252 0,-216 113,-216 113,-252"/>
<text text-anchor="middle" x="56.5" y="-230.3" font-family="Times,serif" font-size="14.00">pa&#45;base&#45;algos</text>
</g>
<!-- 3&#45;&gt;2 -->
<g id="edge5" class="edge">
<title>3&#45;&gt;2</title>
<path fill="none" stroke="black" d="M91.22,-215.52C109.35,-206.39 131.73,-195.11 151.11,-185.35"/>
<polygon fill="black" stroke="black" points="152.52,-188.57 159.87,-180.94 149.37,-182.31 152.52,-188.57"/>
</g>
<!-- 4 -->
<g id="node5" class="node">
<title>4</title>
<polygon fill="none" stroke="black" points="281,-252 210,-252 210,-216 281,-216 281,-252"/>
<text text-anchor="middle" x="245.5" y="-230.3" font-family="Times,serif" font-size="14.00">astarpa</text>
</g>
<!-- 4&#45;&gt;2 -->
<g id="edge6" class="edge">
<title>4&#45;&gt;2</title>
<path fill="none" stroke="black" d="M233.14,-215.7C227.45,-207.73 220.57,-198.1 214.26,-189.26"/>
<polygon fill="black" stroke="black" points="217.26,-187.44 208.6,-181.34 211.56,-191.51 217.26,-187.44"/>
</g>
<!-- 5 -->
<g id="node6" class="node">
<title>5</title>
<polygon fill="none" stroke="black" points="344,-324 261,-324 261,-288 344,-288 344,-324"/>
<text text-anchor="middle" x="302.5" y="-302.3" font-family="Times,serif" font-size="14.00">astarpa&#45;c</text>
</g>
<!-- 5&#45;&gt;4 -->
<g id="edge7" class="edge">
<title>5&#45;&gt;4</title>
<path fill="none" stroke="black" d="M288.41,-287.7C281.85,-279.64 273.91,-269.89 266.66,-260.98"/>
<polygon fill="black" stroke="black" points="269.41,-258.82 260.38,-253.28 263.98,-263.24 269.41,-258.82"/>
</g>
<!-- 6 -->
<g id="node7" class="node">
<title>6</title>
<polygon fill="none" stroke="black" points="204,-324 145,-324 145,-288 204,-288 204,-324"/>
<text text-anchor="middle" x="174.5" y="-302.3" font-family="Times,serif" font-size="14.00">pa&#45;vis</text>
</g>
<!-- 6&#45;&gt;4 -->
<g id="edge8" class="edge">
<title>6&#45;&gt;4</title>
<path fill="none" stroke="black" d="M192.05,-287.7C200.48,-279.39 210.73,-269.28 220,-260.14"/>
<polygon fill="black" stroke="black" points="222.41,-262.68 227.07,-253.17 217.5,-257.7 222.41,-262.68"/>
</g>
<!-- 11 -->
<g id="node12" class="node">
<title>11</title>
<ellipse fill="none" stroke="black" stroke-dasharray="5,2" cx="161.5" cy="-234" rx="30.59" ry="18"/>
<text text-anchor="middle" x="161.5" y="-230.3" font-family="Times,serif" font-size="14.00">sdl2</text>
</g>
<!-- 6&#45;&gt;11 -->
<g id="edge9" class="edge">
<title>6&#45;&gt;11</title>
<path fill="none" stroke="black" stroke-dasharray="1,5" d="M171.29,-287.7C169.92,-280.32 168.28,-271.52 166.75,-263.25"/>
<polygon fill="black" stroke="black" points="170.22,-262.79 164.95,-253.59 163.34,-264.06 170.22,-262.79"/>
</g>
<!-- 7 -->
<g id="node8" class="node">
<title>7</title>
<polygon fill="none" stroke="black" points="263,-396 202,-396 202,-360 263,-360 263,-396"/>
<text text-anchor="middle" x="232.5" y="-374.3" font-family="Times,serif" font-size="14.00">pa&#45;bin</text>
</g>
<!-- 7&#45;&gt;4 -->
<g id="edge10" class="edge">
<title>7&#45;&gt;4</title>
<path fill="none" stroke="black" d="M234.09,-359.59C236.29,-335.61 240.27,-292.14 242.9,-263.42"/>
<polygon fill="black" stroke="black" points="246.37,-263.9 243.8,-253.62 239.4,-263.26 246.37,-263.9"/>
</g>
<!-- 7&#45;&gt;6 -->
<g id="edge12" class="edge">
<title>7&#45;&gt;6</title>
<path fill="none" stroke="black" stroke-dasharray="1,5" d="M218.16,-359.7C211.42,-351.56 203.24,-341.69 195.8,-332.7"/>
<polygon fill="black" stroke="black" points="198.71,-330.74 189.64,-325.27 193.32,-335.2 198.71,-330.74"/>
</g>
<!-- 12 -->
<g id="node13" class="node">
<title>12</title>
<ellipse fill="none" stroke="black" cx="372.5" cy="-162" rx="66.09" ry="18"/>
<text text-anchor="middle" x="372.5" y="-158.3" font-family="Times,serif" font-size="14.00">pa&#45;generate</text>
</g>
<!-- 7&#45;&gt;12 -->
<g id="edge11" class="edge">
<title>7&#45;&gt;12</title>
<path fill="none" stroke="black" d="M263.42,-363.68C299.03,-348.3 352.77,-324.98 353.5,-324 382.2,-285.26 381,-226.28 377.06,-191.49"/>
<polygon fill="black" stroke="black" points="380.56,-191.23 375.8,-181.76 373.62,-192.13 380.56,-191.23"/>
</g>
<!-- 8 -->
<g id="node9" class="node">
<title>8</title>
<polygon fill="none" stroke="black" points="266.5,-468 198.5,-468 198.5,-432 266.5,-432 266.5,-468"/>
<text text-anchor="middle" x="232.5" y="-446.3" font-family="Times,serif" font-size="14.00">pa&#45;web</text>
</g>
<!-- 8&#45;&gt;6 -->
<g id="edge14" class="edge">
<title>8&#45;&gt;6</title>
<path fill="none" stroke="black" d="M216.72,-431.56C208.64,-421.76 199.31,-408.92 193.5,-396 184.88,-376.82 180.09,-353.53 177.47,-335.59"/>
<polygon fill="black" stroke="black" points="180.97,-335.37 176.22,-325.9 174.03,-336.27 180.97,-335.37"/>
</g>
<!-- 8&#45;&gt;7 -->
<g id="edge13" class="edge">
<title>8&#45;&gt;7</title>
<path fill="none" stroke="black" d="M232.5,-431.7C232.5,-424.41 232.5,-415.73 232.5,-407.54"/>
<polygon fill="black" stroke="black" points="236,-407.62 232.5,-397.62 229,-407.62 236,-407.62"/>
</g>
<!-- 13 -->
<g id="node14" class="node">
<title>13</title>
<ellipse fill="none" stroke="black" cx="329.5" cy="-378" rx="48.19" ry="18"/>
<text text-anchor="middle" x="329.5" y="-374.3" font-family="Times,serif" font-size="14.00">web&#45;sys</text>
</g>
<!-- 8&#45;&gt;13 -->
<g id="edge15" class="edge">
<title>8&#45;&gt;13</title>
<path fill="none" stroke="black" d="M256.48,-431.7C269.33,-422.42 285.31,-410.89 299.03,-400.99"/>
<polygon fill="black" stroke="black" points="300.82,-404.01 306.88,-395.32 296.73,-398.34 300.82,-404.01"/>
</g>
<!-- 9 -->
<g id="node10" class="node">
<title>9</title>
<polygon fill="none" stroke="black" points="125,-324 18,-324 18,-288 125,-288 125,-324"/>
<text text-anchor="middle" x="71.5" y="-302.3" font-family="Times,serif" font-size="14.00">astarpa&#45;next</text>
</g>
<!-- 9&#45;&gt;3 -->
<g id="edge17" class="edge">
<title>9&#45;&gt;3</title>
<path fill="none" stroke="black" d="M67.79,-287.7C66.21,-280.32 64.33,-271.52 62.55,-263.25"/>
<polygon fill="black" stroke="black" points="66,-262.63 60.48,-253.58 59.16,-264.1 66,-262.63"/>
</g>
<!-- 9&#45;&gt;4 -->
<g id="edge16" class="edge">
<title>9&#45;&gt;4</title>
<path fill="none" stroke="black" d="M114.96,-287.52C140.62,-277.2 173.08,-264.14 199.21,-253.62"/>
<polygon fill="black" stroke="black" points="200.24,-256.98 208.22,-250 197.63,-250.48 200.24,-256.98"/>
</g>
<!-- 12&#45;&gt;10 -->
<g id="edge18" class="edge">
<title>12&#45;&gt;10</title>
<path fill="none" stroke="black" d="M372.31,-143.6C371.34,-124.61 367.49,-94 353.5,-72 345.3,-59.11 332.8,-48.19 320.61,-39.67"/>
<polygon fill="black" stroke="black" points="322.54,-36.76 312.26,-34.2 318.7,-42.61 322.54,-36.76"/>
</g>
</g>
</svg>
