<?xml version="1.0" encoding="UTF-8" standalone="no"?>
<!DOCTYPE svg PUBLIC "-//W3C//DTD SVG 1.1//EN"
 "http://www.w3.org/Graphics/SVG/1.1/DTD/svg11.dtd">
<!-- Generated by graphviz version 7.1.0 (0)
 -->
<!-- Pages: 1 -->
<svg width="461pt" height="404pt"
 viewBox="0.00 0.00 460.60 404.00" xmlns="http://www.w3.org/2000/svg" xmlns:xlink="http://www.w3.org/1999/xlink">
<g id="graph0" class="graph" transform="scale(1 1) rotate(0) translate(4 400)">
<polygon fill="white" stroke="none" points="-4,4 -4,-400 456.6,-400 456.6,4 -4,4"/>
<!-- 0 -->
<g id="node1" class="node">
<title>0</title>
<polygon fill="none" stroke="black" points="241.5,-108 119.5,-108 119.5,-72 241.5,-72 241.5,-108"/>
<text text-anchor="middle" x="180.5" y="-86.3" font-family="Times,serif" font-size="14.00">pa&#45;affine&#45;types</text>
</g>
<!-- 10 -->
<g id="node11" class="node">
<title>10</title>
<ellipse fill="none" stroke="black" cx="180.5" cy="-18" rx="50.09" ry="18"/>
<text text-anchor="middle" x="180.5" y="-14.3" font-family="Times,serif" font-size="14.00">pa&#45;types</text>
</g>
<!-- 0&#45;&gt;10 -->
<g id="edge1" class="edge">
<title>0&#45;&gt;10</title>
<path fill="none" stroke="black" d="M180.5,-71.7C180.5,-64.41 180.5,-55.73 180.5,-47.54"/>
<polygon fill="black" stroke="black" points="184,-47.62 180.5,-37.62 177,-47.62 184,-47.62"/>
</g>
<!-- 1 -->
<g id="node2" class="node">
<title>1</title>
<polygon fill="none" stroke="black" points="101,-108 0,-108 0,-72 101,-72 101,-108"/>
<text text-anchor="middle" x="50.5" y="-86.3" font-family="Times,serif" font-size="14.00">pa&#45;heuristic</text>
</g>
<!-- 1&#45;&gt;10 -->
<g id="edge2" class="edge">
<title>1&#45;&gt;10</title>
<path fill="none" stroke="black" d="M82.97,-71.52C101.46,-61.56 124.67,-49.06 143.82,-38.75"/>
<polygon fill="black" stroke="black" points="145.22,-41.97 152.36,-34.15 141.9,-35.81 145.22,-41.97"/>
</g>
<!-- 2 -->
<g id="node3" class="node">
<title>2</title>
<polygon fill="none" stroke="black" points="185.5,-180 83.5,-180 83.5,-144 185.5,-144 185.5,-180"/>
<text text-anchor="middle" x="134.5" y="-158.3" font-family="Times,serif" font-size="14.00">pa&#45;vis&#45;types</text>
</g>
<!-- 2&#45;&gt;0 -->
<g id="edge3" class="edge">
<title>2&#45;&gt;0</title>
<path fill="none" stroke="black" d="M145.87,-143.7C151.05,-135.81 157.3,-126.3 163.06,-117.55"/>
<polygon fill="black" stroke="black" points="165.86,-119.65 168.43,-109.37 160.01,-115.8 165.86,-119.65"/>
</g>
<!-- 2&#45;&gt;1 -->
<g id="edge4" class="edge">
<title>2&#45;&gt;1</title>
<path fill="none" stroke="black" d="M113.74,-143.7C103.54,-135.2 91.08,-124.81 79.92,-115.51"/>
<polygon fill="black" stroke="black" points="82.4,-113.03 72.48,-109.32 77.92,-118.41 82.4,-113.03"/>
</g>
<!-- 3 -->
<g id="node4" class="node">
<title>3</title>
<polygon fill="none" stroke="black" points="124,-252 11,-252 11,-216 124,-216 124,-252"/>
<text text-anchor="middle" x="67.5" y="-230.3" font-family="Times,serif" font-size="14.00">pa&#45;base&#45;algos</text>
</g>
<!-- 3&#45;&gt;2 -->
<g id="edge5" class="edge">
<title>3&#45;&gt;2</title>
<path fill="none" stroke="black" d="M84.06,-215.7C91.93,-207.47 101.49,-197.48 110.17,-188.42"/>
<polygon fill="black" stroke="black" points="112.7,-190.84 117.08,-181.2 107.64,-186 112.7,-190.84"/>
</g>
<!-- 4 -->
<g id="node5" class="node">
<title>4</title>
<polygon fill="none" stroke="black" points="214,-252 143,-252 143,-216 214,-216 214,-252"/>
<text text-anchor="middle" x="178.5" y="-230.3" font-family="Times,serif" font-size="14.00">astarpa</text>
</g>
<!-- 4&#45;&gt;2 -->
<g id="edge6" class="edge">
<title>4&#45;&gt;2</title>
<path fill="none" stroke="black" d="M167.62,-215.7C162.72,-207.9 156.82,-198.51 151.36,-189.83"/>
<polygon fill="black" stroke="black" points="154.34,-187.99 146.06,-181.39 148.42,-191.71 154.34,-187.99"/>
</g>
<!-- 5 -->
<g id="node6" class="node">
<title>5</title>
<polygon fill="none" stroke="black" points="221,-324 138,-324 138,-288 221,-288 221,-324"/>
<text text-anchor="middle" x="179.5" y="-302.3" font-family="Times,serif" font-size="14.00">astarpa&#45;c</text>
</g>
<!-- 5&#45;&gt;4 -->
<g id="edge7" class="edge">
<title>5&#45;&gt;4</title>
<path fill="none" stroke="black" d="M179.25,-287.7C179.15,-280.41 179.02,-271.73 178.91,-263.54"/>
<polygon fill="black" stroke="black" points="182.41,-263.57 178.77,-253.62 175.41,-263.67 182.41,-263.57"/>
</g>
<!-- 6 -->
<g id="node7" class="node">
<title>6</title>
<polygon fill="none" stroke="black" points="357,-252 298,-252 298,-216 357,-216 357,-252"/>
<text text-anchor="middle" x="327.5" y="-230.3" font-family="Times,serif" font-size="14.00">pa&#45;vis</text>
</g>
<!-- 6&#45;&gt;2 -->
<g id="edge8" class="edge">
<title>6&#45;&gt;2</title>
<path fill="none" stroke="black" d="M297.77,-222.22C269.98,-212.14 227.7,-196.8 193.13,-184.26"/>
<polygon fill="black" stroke="black" points="194.69,-181.11 184.09,-180.99 192.3,-187.69 194.69,-181.11"/>
</g>
<!-- 11 -->
<g id="node12" class="node">
<title>11</title>
<ellipse fill="none" stroke="black" stroke-dasharray="5,2" cx="384.5" cy="-162" rx="30.59" ry="18"/>
<text text-anchor="middle" x="384.5" y="-158.3" font-family="Times,serif" font-size="14.00">sdl2</text>
</g>
<!-- 6&#45;&gt;11 -->
<g id="edge9" class="edge">
<title>6&#45;&gt;11</title>
<path fill="none" stroke="black" stroke-dasharray="1,5" d="M341.59,-215.7C348.51,-207.19 356.98,-196.8 364.55,-187.5"/>
<polygon fill="black" stroke="black" points="367.18,-189.81 370.78,-179.84 361.76,-185.39 367.18,-189.81"/>
</g>
<!-- 7 -->
<g id="node8" class="node">
<title>7</title>
<polygon fill="none" stroke="black" points="300,-324 239,-324 239,-288 300,-288 300,-324"/>
<text text-anchor="middle" x="269.5" y="-302.3" font-family="Times,serif" font-size="14.00">pa&#45;bin</text>
</g>
<!-- 7&#45;&gt;4 -->
<g id="edge10" class="edge">
<title>7&#45;&gt;4</title>
<path fill="none" stroke="black" d="M247.01,-287.7C235.85,-279.11 222.19,-268.61 210.01,-259.24"/>
<polygon fill="black" stroke="black" points="212.31,-256.59 202.25,-253.27 208.04,-262.14 212.31,-256.59"/>
</g>
<!-- 7&#45;&gt;6 -->
<g id="edge12" class="edge">
<title>7&#45;&gt;6</title>
<path fill="none" stroke="black" stroke-dasharray="1,5" d="M283.84,-287.7C290.58,-279.56 298.76,-269.69 306.2,-260.7"/>
<polygon fill="black" stroke="black" points="308.68,-263.2 312.36,-253.27 303.29,-258.74 308.68,-263.2"/>
</g>
<!-- 12 -->
<g id="node13" class="node">
<title>12</title>
<ellipse fill="none" stroke="black" cx="269.5" cy="-162" rx="66.09" ry="18"/>
<text text-anchor="middle" x="269.5" y="-158.3" font-family="Times,serif" font-size="14.00">pa&#45;generate</text>
</g>
<!-- 7&#45;&gt;12 -->
<g id="edge11" class="edge">
<title>7&#45;&gt;12</title>
<path fill="none" stroke="black" d="M269.5,-287.59C269.5,-263.61 269.5,-220.14 269.5,-191.42"/>
<polygon fill="black" stroke="black" points="273,-191.62 269.5,-181.62 266,-191.62 273,-191.62"/>
</g>
<!-- 8 -->
<g id="node9" class="node">
<title>8</title>
<polygon fill="none" stroke="black" points="362.5,-396 294.5,-396 294.5,-360 362.5,-360 362.5,-396"/>
<text text-anchor="middle" x="328.5" y="-374.3" font-family="Times,serif" font-size="14.00">pa&#45;web</text>
</g>
<!-- 8&#45;&gt;6 -->
<g id="edge14" class="edge">
<title>8&#45;&gt;6</title>
<path fill="none" stroke="black" d="M328.38,-359.59C328.21,-335.61 327.9,-292.14 327.7,-263.42"/>
<polygon fill="black" stroke="black" points="331.2,-263.6 327.63,-253.62 324.2,-263.65 331.2,-263.6"/>
</g>
<!-- 8&#45;&gt;7 -->
<g id="edge13" class="edge">
<title>8&#45;&gt;7</title>
<path fill="none" stroke="black" d="M313.92,-359.7C307.06,-351.56 298.74,-341.69 291.16,-332.7"/>
<polygon fill="black" stroke="black" points="294.01,-330.65 284.89,-325.26 288.66,-335.16 294.01,-330.65"/>
</g>
<!-- 13 -->
<g id="node14" class="node">
<title>13</title>
<ellipse fill="none" stroke="black" cx="404.5" cy="-306" rx="48.19" ry="18"/>
<text text-anchor="middle" x="404.5" y="-302.3" font-family="Times,serif" font-size="14.00">web&#45;sys</text>
</g>
<!-- 8&#45;&gt;13 -->
<g id="edge15" class="edge">
<title>8&#45;&gt;13</title>
<path fill="none" stroke="black" d="M347.29,-359.7C356.76,-350.97 368.41,-340.24 378.71,-330.75"/>
<polygon fill="black" stroke="black" points="380.87,-333.52 385.86,-324.17 376.13,-328.37 380.87,-333.52"/>
</g>
<!-- 9 -->
<g id="node10" class="node">
<title>9</title>
<polygon fill="none" stroke="black" points="120,-324 13,-324 13,-288 120,-288 120,-324"/>
<text text-anchor="middle" x="66.5" y="-302.3" font-family="Times,serif" font-size="14.00">astarpa&#45;next</text>
</g>
<!-- 9&#45;&gt;3 -->
<g id="edge17" class="edge">
<title>9&#45;&gt;3</title>
<path fill="none" stroke="black" d="M66.75,-287.7C66.85,-280.41 66.98,-271.73 67.09,-263.54"/>
<polygon fill="black" stroke="black" points="70.59,-263.67 67.23,-253.62 63.59,-263.57 70.59,-263.67"/>
</g>
<!-- 9&#45;&gt;4 -->
<g id="edge16" class="edge">
<title>9&#45;&gt;4</title>
<path fill="none" stroke="black" d="M94.47,-287.52C108.61,-278.68 125.96,-267.84 141.22,-258.3"/>
<polygon fill="black" stroke="black" points="142.97,-261.33 149.6,-253.06 139.26,-255.39 142.97,-261.33"/>
</g>
<!-- 12&#45;&gt;10 -->
<g id="edge18" class="edge">
<title>12&#45;&gt;10</title>
<path fill="none" stroke="black" d="M269.31,-143.6C268.34,-124.61 264.49,-94 250.5,-72 242.3,-59.11 229.8,-48.19 217.61,-39.67"/>
<polygon fill="black" stroke="black" points="219.54,-36.76 209.26,-34.2 215.7,-42.61 219.54,-36.76"/>
</g>
</g>
</svg>
