<?xml version="1.0" encoding="UTF-8" standalone="no"?>
<!DOCTYPE svg PUBLIC "-//W3C//DTD SVG 1.1//EN"
 "http://www.w3.org/Graphics/SVG/1.1/DTD/svg11.dtd">
<!-- Generated by graphviz version 10.0.1 (0)
 -->
<!-- Pages: 1 -->
<svg width="481pt" height="404pt"
 viewBox="0.00 0.00 480.70 404.00" xmlns="http://www.w3.org/2000/svg" xmlns:xlink="http://www.w3.org/1999/xlink">
<g id="graph0" class="graph" transform="scale(1 1) rotate(0) translate(4 400)">
<polygon fill="white" stroke="none" points="-4,4 -4,-400 476.7,-400 476.7,4 -4,4"/>
<!-- 0 -->
<g id="node1" class="node">
<title>0</title>
<polygon fill="none" stroke="black" points="255,-108 134,-108 134,-72 255,-72 255,-108"/>
<text text-anchor="middle" x="194.5" y="-85.33" font-family="Times,serif" font-size="14.00">pa&#45;affine&#45;types</text>
</g>
<!-- 11 -->
<g id="node12" class="node">
<title>11</title>
<ellipse fill="none" stroke="black" cx="258.5" cy="-18" rx="53.84" ry="18"/>
<text text-anchor="middle" x="258.5" y="-13.32" font-family="Times,serif" font-size="14.00">pa&#45;types</text>
</g>
<!-- 0&#45;&gt;11 -->
<g id="edge1" class="edge">
<title>0&#45;&gt;11</title>
<path fill="none" stroke="black" d="M210.32,-71.7C217.95,-63.35 227.25,-53.18 235.63,-44.02"/>
<polygon fill="black" stroke="black" points="238.12,-46.48 242.28,-36.74 232.95,-41.76 238.12,-46.48"/>
</g>
<!-- 1 -->
<g id="node2" class="node">
<title>1</title>
<polygon fill="none" stroke="black" points="373.88,-108 273.12,-108 273.12,-72 373.88,-72 373.88,-108"/>
<text text-anchor="middle" x="323.5" y="-85.33" font-family="Times,serif" font-size="14.00">pa&#45;heuristic</text>
</g>
<!-- 1&#45;&gt;11 -->
<g id="edge2" class="edge">
<title>1&#45;&gt;11</title>
<path fill="none" stroke="black" d="M307.43,-71.7C299.68,-63.35 290.24,-53.18 281.73,-44.02"/>
<polygon fill="black" stroke="black" points="284.33,-41.68 274.96,-36.73 279.2,-46.44 284.33,-41.68"/>
</g>
<!-- 2 -->
<g id="node3" class="node">
<title>2</title>
<polygon fill="none" stroke="black" points="294.25,-180 192.75,-180 192.75,-144 294.25,-144 294.25,-180"/>
<text text-anchor="middle" x="243.5" y="-157.32" font-family="Times,serif" font-size="14.00">pa&#45;vis&#45;types</text>
</g>
<!-- 2&#45;&gt;0 -->
<g id="edge3" class="edge">
<title>2&#45;&gt;0</title>
<path fill="none" stroke="black" d="M231.39,-143.7C225.81,-135.73 219.07,-126.1 212.88,-117.26"/>
<polygon fill="black" stroke="black" points="215.94,-115.53 207.34,-109.34 210.21,-119.54 215.94,-115.53"/>
</g>
<!-- 2&#45;&gt;1 -->
<g id="edge4" class="edge">
<title>2&#45;&gt;1</title>
<path fill="none" stroke="black" d="M263.28,-143.7C272.89,-135.28 284.62,-125.02 295.17,-115.79"/>
<polygon fill="black" stroke="black" points="297.31,-118.56 302.54,-109.34 292.71,-113.29 297.31,-118.56"/>
</g>
<!-- 3 -->
<g id="node4" class="node">
<title>3</title>
<polygon fill="none" stroke="black" points="373.5,-252 303.5,-252 303.5,-216 373.5,-216 373.5,-252"/>
<text text-anchor="middle" x="338.5" y="-229.32" font-family="Times,serif" font-size="14.00">astarpa</text>
</g>
<!-- 3&#45;&gt;2 -->
<g id="edge5" class="edge">
<title>3&#45;&gt;2</title>
<path fill="none" stroke="black" d="M315.02,-215.7C303.26,-207.03 288.83,-196.4 276.02,-186.96"/>
<polygon fill="black" stroke="black" points="278.39,-184.36 268.26,-181.24 274.24,-189.99 278.39,-184.36"/>
</g>
<!-- 4 -->
<g id="node5" class="node">
<title>4</title>
<polygon fill="none" stroke="black" points="340.5,-324 258.5,-324 258.5,-288 340.5,-288 340.5,-324"/>
<text text-anchor="middle" x="299.5" y="-301.32" font-family="Times,serif" font-size="14.00">astarpa&#45;c</text>
</g>
<!-- 4&#45;&gt;3 -->
<g id="edge6" class="edge">
<title>4&#45;&gt;3</title>
<path fill="none" stroke="black" d="M309.14,-287.7C313.44,-279.98 318.6,-270.71 323.39,-262.11"/>
<polygon fill="black" stroke="black" points="326.42,-263.87 328.23,-253.43 320.31,-260.46 326.42,-263.87"/>
</g>
<!-- 5 -->
<g id="node6" class="node">
<title>5</title>
<polygon fill="none" stroke="black" points="79,-252 0,-252 0,-216 79,-216 79,-252"/>
<text text-anchor="middle" x="39.5" y="-229.32" font-family="Times,serif" font-size="14.00">astarpa2</text>
</g>
<!-- 5&#45;&gt;2 -->
<g id="edge8" class="edge">
<title>5&#45;&gt;2</title>
<path fill="none" stroke="black" d="M79.34,-219.16C82.44,-218.09 85.52,-217.03 88.5,-216 119.26,-205.41 153.47,-193.7 181.92,-183.99"/>
<polygon fill="black" stroke="black" points="182.75,-187.4 191.09,-180.86 180.49,-180.78 182.75,-187.4"/>
</g>
<!-- 6 -->
<g id="node7" class="node">
<title>6</title>
<polygon fill="none" stroke="black" points="161.88,-180 49.12,-180 49.12,-144 161.88,-144 161.88,-180"/>
<text text-anchor="middle" x="105.5" y="-157.32" font-family="Times,serif" font-size="14.00">pa&#45;bitpacking</text>
</g>
<!-- 5&#45;&gt;6 -->
<g id="edge7" class="edge">
<title>5&#45;&gt;6</title>
<path fill="none" stroke="black" d="M55.81,-215.7C63.57,-207.47 72.99,-197.48 81.53,-188.42"/>
<polygon fill="black" stroke="black" points="84.02,-190.88 88.33,-181.21 78.93,-186.08 84.02,-190.88"/>
</g>
<!-- 6&#45;&gt;11 -->
<g id="edge9" class="edge">
<title>6&#45;&gt;11</title>
<path fill="none" stroke="black" d="M104.61,-143.51C104.56,-123.88 107.46,-92.14 124.5,-72 143.31,-49.77 172.7,-36.8 199.18,-29.27"/>
<polygon fill="black" stroke="black" points="200.05,-32.65 208.84,-26.74 198.28,-25.88 200.05,-32.65"/>
</g>
<!-- 7 -->
<g id="node8" class="node">
<title>7</title>
<polygon fill="none" stroke="black" points="285.5,-252 227.5,-252 227.5,-216 285.5,-216 285.5,-252"/>
<text text-anchor="middle" x="256.5" y="-229.32" font-family="Times,serif" font-size="14.00">pa&#45;vis</text>
</g>
<!-- 7&#45;&gt;2 -->
<g id="edge10" class="edge">
<title>7&#45;&gt;2</title>
<path fill="none" stroke="black" d="M253.29,-215.7C251.92,-208.32 250.28,-199.52 248.75,-191.25"/>
<polygon fill="black" stroke="black" points="252.22,-190.79 246.95,-181.59 245.34,-192.06 252.22,-190.79"/>
</g>
<!-- 8 -->
<g id="node9" class="node">
<title>8</title>
<polygon fill="none" stroke="black" points="418.62,-324 358.38,-324 358.38,-288 418.62,-288 418.62,-324"/>
<text text-anchor="middle" x="388.5" y="-301.32" font-family="Times,serif" font-size="14.00">pa&#45;bin</text>
</g>
<!-- 8&#45;&gt;3 -->
<g id="edge11" class="edge">
<title>8&#45;&gt;3</title>
<path fill="none" stroke="black" d="M376.14,-287.7C370.45,-279.73 363.57,-270.1 357.26,-261.26"/>
<polygon fill="black" stroke="black" points="360.26,-259.44 351.6,-253.34 354.56,-263.51 360.26,-259.44"/>
</g>
<!-- 8&#45;&gt;7 -->
<g id="edge13" class="edge">
<title>8&#45;&gt;7</title>
<path fill="none" stroke="black" stroke-dasharray="1,5" d="M357.88,-288.76C339.34,-278.93 315.49,-266.28 295.59,-255.73"/>
<polygon fill="black" stroke="black" points="297.4,-252.73 286.93,-251.14 294.12,-258.91 297.4,-252.73"/>
</g>
<!-- 12 -->
<g id="node13" class="node">
<title>12</title>
<ellipse fill="none" stroke="black" cx="401.5" cy="-162" rx="71.2" ry="18"/>
<text text-anchor="middle" x="401.5" y="-157.32" font-family="Times,serif" font-size="14.00">pa&#45;generate</text>
</g>
<!-- 8&#45;&gt;12 -->
<g id="edge12" class="edge">
<title>8&#45;&gt;12</title>
<path fill="none" stroke="black" d="M390.09,-287.59C392.29,-263.61 396.27,-220.14 398.9,-191.42"/>
<polygon fill="black" stroke="black" points="402.37,-191.9 399.8,-181.62 395.4,-191.26 402.37,-191.9"/>
</g>
<!-- 9 -->
<g id="node10" class="node">
<title>9</title>
<polygon fill="none" stroke="black" points="209.88,-252 97.12,-252 97.12,-216 209.88,-216 209.88,-252"/>
<text text-anchor="middle" x="153.5" y="-229.32" font-family="Times,serif" font-size="14.00">pa&#45;base&#45;algos</text>
</g>
<!-- 9&#45;&gt;2 -->
<g id="edge15" class="edge">
<title>9&#45;&gt;2</title>
<path fill="none" stroke="black" d="M175.75,-215.7C186.78,-207.11 200.29,-196.61 212.34,-187.24"/>
<polygon fill="black" stroke="black" points="214.26,-190.18 220,-181.28 209.96,-184.65 214.26,-190.18"/>
</g>
<!-- 9&#45;&gt;6 -->
<g id="edge14" class="edge">
<title>9&#45;&gt;6</title>
<path fill="none" stroke="black" d="M141.63,-215.7C136.23,-207.81 129.71,-198.3 123.7,-189.55"/>
<polygon fill="black" stroke="black" points="126.63,-187.62 118.08,-181.35 120.85,-191.58 126.63,-187.62"/>
</g>
<!-- 10 -->
<g id="node11" class="node">
<title>10</title>
<polygon fill="none" stroke="black" points="283.5,-396 177.5,-396 177.5,-360 283.5,-360 283.5,-396"/>
<text text-anchor="middle" x="230.5" y="-373.32" font-family="Times,serif" font-size="14.00">astarpa&#45;next</text>
</g>
<!-- 10&#45;&gt;7 -->
<g id="edge18" class="edge">
<title>10&#45;&gt;7</title>
<path fill="none" stroke="black" stroke-dasharray="1,5" d="M233.69,-359.59C238.08,-335.61 246.04,-292.14 251.3,-263.42"/>
<polygon fill="black" stroke="black" points="254.74,-264.07 253.09,-253.6 247.85,-262.81 254.74,-264.07"/>
</g>
<!-- 10&#45;&gt;8 -->
<g id="edge17" class="edge">
<title>10&#45;&gt;8</title>
<path fill="none" stroke="black" d="M269.96,-359.52C293.58,-349.05 323.56,-335.77 347.45,-325.18"/>
<polygon fill="black" stroke="black" points="348.85,-328.39 356.58,-321.14 346.02,-321.99 348.85,-328.39"/>
</g>
<!-- 10&#45;&gt;9 -->
<g id="edge16" class="edge">
<title>10&#45;&gt;9</title>
<path fill="none" stroke="black" d="M221.06,-359.59C207.82,-335.18 183.64,-290.58 168.08,-261.89"/>
<polygon fill="black" stroke="black" points="171.34,-260.56 163.5,-253.44 165.19,-263.9 171.34,-260.56"/>
</g>
<!-- 12&#45;&gt;11 -->
<g id="edge19" class="edge">
<title>12&#45;&gt;11</title>
<path fill="none" stroke="black" d="M402.29,-143.6C402.24,-124.04 399.27,-92.37 382.5,-72 365.66,-51.54 339.48,-38.81 315.51,-30.98"/>
<polygon fill="black" stroke="black" points="316.72,-27.69 306.13,-28.15 314.7,-34.39 316.72,-27.69"/>
</g>
</g>
</svg>
